<svg width="1024" height="1024" viewBox="0 0 1024 1024" fill="none" xmlns="http://www.w3.org/2000/svg">
  <defs>
    <linearGradient id="bg" x1="70" y1="50" x2="928" y2="964" gradientUnits="userSpaceOnUse">
      <stop stop-color="#F7FAF8"/>
      <stop offset="0.46" stop-color="#DCEFE9"/>
      <stop offset="1" stop-color="#B7DDD2"/>
    </linearGradient>
    <linearGradient id="glassA" x1="180" y1="104" x2="744" y2="856" gradientUnits="userSpaceOnUse">
      <stop stop-color="white" stop-opacity="0.84"/>
      <stop offset="0.55" stop-color="#9FD9CC" stop-opacity="0.22"/>
      <stop offset="1" stop-color="#2AA883" stop-opacity="0.42"/>
    </linearGradient>
    <linearGradient id="glassB" x1="844" y1="44" x2="270" y2="982" gradientUnits="userSpaceOnUse">
      <stop stop-color="#EFFFF9" stop-opacity="0.72"/>
      <stop offset="0.48" stop-color="#7DC8B5" stop-opacity="0.18"/>
      <stop offset="1" stop-color="white" stop-opacity="0.58"/>
    </linearGradient>
    <filter id="blur" x="-20%" y="-20%" width="140%" height="140%">
      <feGaussianBlur stdDeviation="24"/>
    </filter>
    <filter id="grain" x="0" y="0" width="100%" height="100%">
      <feTurbulence type="fractalNoise" baseFrequency="0.7" numOctaves="2" seed="11" result="noise"/>
      <feColorMatrix in="noise" type="saturate" values="0" result="mono"/>
      <feComponentTransfer in="mono"><feFuncA type="table" tableValues="0 0.07"/></feComponentTransfer>
      <feBlend in="SourceGraphic" mode="soft-light"/>
    </filter>
  </defs>
  <rect width="1024" height="1024" fill="url(#bg)"/>
  <ellipse cx="748" cy="228" rx="260" ry="190" fill="#FFFFFF" fill-opacity="0.7" filter="url(#blur)"/>
  <path d="M-70 778C181 613 208 259 431 94C566 -6 733 16 1090 152V1030H-70V778Z" fill="url(#glassA)"/>
  <path d="M1078 742C813 628 776 325 593 160C444 25 267 23 -54 170V1056H1078V742Z" fill="url(#glassB)"/>
  <path d="M83 928C341 753 378 400 577 227C697 122 809 88 1019 104" stroke="white" stroke-opacity="0.55" stroke-width="18" stroke-linecap="round" filter="url(#blur)"/>
  <path d="M-20 408C259 483 383 688 566 763C724 828 859 797 1049 687" stroke="#5DBDA4" stroke-opacity="0.24" stroke-width="70" stroke-linecap="round" filter="url(#blur)"/>
  <rect width="1024" height="1024" fill="transparent" filter="url(#grain)"/>
</svg>
